<?xml version="1.0" encoding="UTF-8" standalone="no"?>
<svg
   viewBox="0 0 800 800"
   fill="black"
   version="1.1"
   id="svg3"
   sodipodi:docname="logo.svg"
   inkscape:version="1.3.2 (091e20ef0f, 2023-11-25, custom)"
   inkscape:export-filename="../icons/safari-pinned-tab.svg"
   inkscape:export-xdpi="21.6"
   inkscape:export-ydpi="21.6"
   xmlns:inkscape="http://www.inkscape.org/namespaces/inkscape"
   xmlns:sodipodi="http://sodipodi.sourceforge.net/DTD/sodipodi-0.dtd"
   xmlns="http://www.w3.org/2000/svg"
   xmlns:svg="http://www.w3.org/2000/svg">
  <defs
     id="defs3">
    <inkscape:path-effect
       effect="fillet_chamfer"
       id="path-effect8"
       is_visible="true"
       lpeversion="1"
       nodesatellites_param="F,0,0,1,0,48.824707,0,1 @ F,0,0,1,0,55.448705,0,1 @ F,0,0,1,0,0,0,1 @ F,0,0,1,0,0,0,1"
       radius="0"
       unit="px"
       method="auto"
       mode="F"
       chamfer_steps="1"
       flexible="false"
       use_knot_distance="true"
       apply_no_radius="true"
       apply_with_radius="true"
       only_selected="false"
       hide_knots="false" />
  </defs>
  <sodipodi:namedview
     id="namedview3"
     pagecolor="#505050"
     bordercolor="#eeeeee"
     borderopacity="1"
     inkscape:showpageshadow="0"
     inkscape:pageopacity="0"
     inkscape:pagecheckerboard="0"
     inkscape:deskcolor="#505050"
     inkscape:zoom="0.68969359"
     inkscape:cx="431.35097"
     inkscape:cy="336.38126"
     inkscape:window-width="1904"
     inkscape:window-height="991"
     inkscape:window-x="1928"
     inkscape:window-y="81"
     inkscape:window-maximized="1"
     inkscape:current-layer="svg3" />
  <path
     id="rect9"
     style="font-variation-settings:normal;opacity:1;vector-effect:none;fill:#000000;fill-opacity:1;stroke:none;stroke-width:12.0259;stroke-linecap:round;stroke-linejoin:round;stroke-miterlimit:4;stroke-dasharray:none;stroke-dashoffset:0;stroke-opacity:1;-inkscape-stroke:none"
     inkscape:label="bg"
     d="M 0 0 L 0 602.52344 C 13.667708 597.23326 27.192337 592.40262 40.710938 587.78516 L 40.710938 638.63086 L 110.13281 624.55469 L 111.50391 567.83789 L 182.29492 553.1543 L 182.29492 616.62695 L 253.72461 601.125 L 253.08789 545.83398 L 253.08789 406.46875 L 400 406.46875 L 400 422.05664 L 442.88281 422.05664 L 442.88281 461.44922 L 546.91211 461.44922 L 546.91211 545.83398 L 548.28516 597.56836 L 618.72656 610.5 L 617.70508 553.1543 L 688.49609 567.83789 L 688.08789 625.0293 L 759.28906 638.63086 L 759.28906 587.78516 C 772.80767 592.40262 786.33228 597.23326 800 602.52344 L 800 0 L 420.04492 0 C 498.61844 9.8949528 559.54524 76.914883 559.54492 158.14844 L 559.54492 158.1582 L 559.54492 158.16602 C 559.35994 233.21847 519.67016 300.56648 445.04492 315.48633 A 6.4735999 6.4735999 0 0 1 437.42773 310.4082 A 6.4735999 6.4735999 0 0 1 442.50586 302.79102 C 510.70654 289.15563 546.42034 228.74116 546.59766 158.14258 C 546.59477 77.104967 481.03838 11.550485 400 11.550781 C 318.96492 11.550485 253.41056 77.100122 253.40234 158.13281 C 253.40235 158.13681 253.40234 158.13958 253.40234 158.14258 L 253.40234 158.14844 C 253.58999 227.8395 289.28913 288.55936 356.39844 303.04492 A 6.4735999 6.4735999 0 0 1 361.36133 310.74023 A 6.4735999 6.4735999 0 0 1 353.66797 315.70117 C 280.13538 299.8296 240.64913 232.35378 240.45508 158.16602 L 240.45508 158.1582 L 240.45508 158.14844 C 240.45478 76.914495 301.38157 9.8949551 379.95508 0 L 0 0 z M 275.31641 132.01562 L 275.31836 132.01562 C 295.86036 131.21939 343.95052 192.68555 400 192.68555 C 474.73264 192.68555 535.31641 83.417746 535.31641 158.15039 C 535.31641 210.46624 505.60692 255.81385 462.1582 278.33203 C 461.66194 278.84696 460.51824 279.44947 458.58984 280.15625 C 458.58684 280.15725 458.58403 280.15916 458.58203 280.16016 C 456.382 281.21841 454.14106 282.2018 451.87695 283.14258 C 432.51661 293.5328 424.24465 316.3774 400 385.93359 C 372.05303 312.45502 362.38748 290.26619 347.4082 282.86133 C 346.80814 282.60797 346.22452 282.32424 345.62891 282.0625 C 345.33697 281.94317 345.04849 281.81704 344.75195 281.70703 L 344.82812 281.69922 C 297.60648 260.57898 264.68359 213.22355 264.68359 158.14844 C 264.68359 139.46528 268.46906 132.28103 275.31641 132.01562 z M 400 570.57227 A 48.824707 48.824707 0 0 0 351.17578 619.39648 L 351.17578 757.17188 L 448.82422 757.17188 L 448.82422 626.02148 A 52.241787 52.241787 0 0 0 400 570.57227 z " />
  <path
     id="path3"
     style="font-variation-settings:normal;display:inline;opacity:1;vector-effect:none;fill:none;fill-opacity:1;stroke:#ffffff;stroke-width:12.9472;stroke-linecap:round;stroke-linejoin:miter;stroke-miterlimit:4;stroke-dasharray:none;stroke-dashoffset:0;stroke-opacity:1;-inkscape-stroke:none;stop-color:#000000;stop-opacity:1"
     d="M 443.77524,309.13894 C 515.18993,294.86098 552.89164,230.97706 553.07114,158.14928 553.07146,73.610171 484.53889,5.0776007 399.99977,5.0779097 315.46066,5.0776007 246.92809,73.610171 246.9284,158.14928 c 0.18818,71.94286 37.78112,136.04525 108.10473,151.22419"
     sodipodi:nodetypes="ccccc"
     inkscape:label="foundry bucket" />
  <path
     id="path3-3"
     style="display:inline;vector-effect:none;fill:#ffffff;stroke-width:11.4455;stop-color:#000000"
     d="m 275.31729,132.01594 c -6.84735,0.26541 -10.633,7.45016 -10.633,26.13334 0,55.07517 32.92245,102.43008 80.14414,123.55034 l -0.0765,0.007 c 0.29654,0.11001 0.58449,0.23692 0.87643,0.35625 0.59561,0.26174 1.17902,0.54439 1.77908,0.79775 14.97929,7.40487 24.64533,29.59471 52.59233,103.07336 24.24467,-69.55626 32.51728,-92.40119 51.87764,-102.79142 2.26411,-0.94078 4.50542,-1.9251 6.70545,-2.98335 0.002,-10e-4 0.004,-10e-4 0.007,-0.002 1.9284,-0.70678 3.07285,-1.31005 3.56911,-1.82498 43.44876,-22.5182 73.15673,-67.86642 73.15673,-120.18232 0,-74.732719 -60.58276,34.53483 -135.31547,34.53483 -56.04954,0 -104.14046,-61.46441 -124.68248,-60.66817 z"
     inkscape:label="foundry pour" />
  <path
     id="rect7"
     style="display:inline;fill:#ffffff;fill-opacity:1;stroke:none;stroke-width:16.8;stroke-dasharray:none;stroke-dashoffset:0;stroke-opacity:1"
     d="m 253.08789,406.46875 v 139.36523 l 0.63672,55.29102 -71.42969,15.50195 V 553.1543 l -70.79101,14.68359 -1.3711,56.7168 -69.421872,14.07617 v -50.8457 C 27.192324,592.40263 13.667722,597.23326 0,602.52344 V 800 H 400 800 V 602.52344 c -13.66773,-5.29018 -27.19232,-10.12081 -40.71094,-14.73828 v 50.8457 l -71.20117,-13.60156 0.4082,-57.19141 -70.79101,-14.68359 1.02148,57.3457 -70.4414,-12.93164 -1.37305,-51.73438 V 461.44922 H 442.88281 V 422.05664 H 400 V 406.46875 Z M 400,570.57227 a 52.241787,52.241787 0 0 1 48.82422,55.44921 v 131.1504 H 351.17578 V 619.39648 A 48.824707,48.824707 0 0 1 400,570.57227 Z"
     inkscape:label="castle" />
</svg>
