<?xml version="1.0" encoding="UTF-8" standalone="no"?>
<svg
   viewBox="0 0 640000 640000"
   fill="#000000"
   version="1.1"
   id="svg3"
   sodipodi:docname="logo.svg"
   inkscape:version="1.3.2 (091e20ef0f, 2023-11-25, custom)"
   inkscape:export-filename="../icons/apple-touch-icon.png"
   inkscape:export-xdpi="21.6"
   inkscape:export-ydpi="21.6"
   width="640000"
   height="640000"
   xmlns:inkscape="http://www.inkscape.org/namespaces/inkscape"
   xmlns:sodipodi="http://sodipodi.sourceforge.net/DTD/sodipodi-0.dtd"
   xmlns="http://www.w3.org/2000/svg"
   xmlns:svg="http://www.w3.org/2000/svg">
  <defs
     id="defs3" />
  <sodipodi:namedview
     id="namedview3"
     pagecolor="#505050"
     bordercolor="#eeeeee"
     borderopacity="1"
     inkscape:showpageshadow="0"
     inkscape:pageopacity="0"
     inkscape:pagecheckerboard="0"
     inkscape:deskcolor="#505050"
     inkscape:zoom="0.68969359"
     inkscape:cx="431.35097"
     inkscape:cy="508.92165"
     inkscape:window-width="1904"
     inkscape:window-height="991"
     inkscape:window-x="1928"
     inkscape:window-y="81"
     inkscape:window-maximized="1"
     inkscape:current-layer="svg3" />
  <path
     id="rect9"
     style="font-variation-settings:normal;opacity:1;vector-effect:none;fill:#000000;fill-opacity:1;stroke:none;stroke-width:12.0259;stroke-linecap:round;stroke-linejoin:round;stroke-miterlimit:4;stroke-dasharray:none;stroke-dashoffset:0;stroke-opacity:1;-inkscape-stroke:none"
     inkscape:label="bg"
     d="m 0,0 v 602.52344 c 13.667708,-5.29018 27.192337,-10.12082 40.710938,-14.73828 v 50.8457 l 69.421872,-14.07617 1.3711,-56.7168 70.79101,-14.68359 v 63.47265 L 253.72461,601.125 253.08789,545.83398 V 406.46875 H 400 v 15.58789 h 42.88281 v 39.39258 h 104.0293 v 84.38476 l 1.37305,51.73438 70.4414,12.93164 -1.02148,-57.3457 70.79101,14.68359 -0.4082,57.19141 71.20117,13.60156 v -50.8457 c 13.51861,4.61746 27.04322,9.4481 40.71094,14.73828 V 0 H 420.04492 c 78.57352,9.8949528 139.50032,76.914883 139.5,158.14844 v 0.01 0.008 c -0.18498,75.05245 -39.87476,142.40046 -114.5,157.32031 a 6.4735999,6.4735999 0 0 1 -7.61719,-5.07813 6.4735999,6.4735999 0 0 1 5.07813,-7.61718 C 510.70654,289.15563 546.42034,228.74116 546.59766,158.14258 546.59477,77.104967 481.03838,11.550485 400,11.550781 318.96492,11.550485 253.41056,77.100122 253.40234,158.13281 c 1e-5,0.004 0,0.007 0,0.01 v 0.006 c 0.18765,69.69106 35.88679,130.41092 102.9961,144.89648 a 6.4735999,6.4735999 0 0 1 4.96289,7.69531 6.4735999,6.4735999 0 0 1 -7.69336,4.96094 C 280.13538,299.8296 240.64913,232.35378 240.45508,158.16602 v -0.008 -0.01 C 240.45478,76.914495 301.38157,9.8949551 379.95508,0 Z m 275.31641,132.01562 h 0.002 c 20.542,-0.79623 68.63216,60.66993 124.68164,60.66993 74.73264,0 135.31641,-109.267804 135.31641,-34.53516 0,52.31585 -29.70949,97.66346 -73.15821,120.18164 -0.49626,0.51493 -1.63996,1.11744 -3.56836,1.82422 -0.003,10e-4 -0.006,0.003 -0.008,0.004 -2.20003,1.05825 -4.44097,2.04164 -6.70508,2.98242 C 432.51661,293.5328 424.24465,316.3774 400,385.93359 c -27.94697,-73.47857 -37.61252,-95.6674 -52.5918,-103.07226 -0.60006,-0.25336 -1.18368,-0.53709 -1.77929,-0.79883 -0.29194,-0.11933 -0.58042,-0.24546 -0.87696,-0.35547 l 0.0762,-0.008 c -47.22164,-21.12024 -80.14453,-68.47567 -80.14453,-123.55078 0,-18.68316 3.78547,-25.86741 10.63282,-26.13282 z M 400,570.57227 a 48.824707,48.824707 0 0 0 -48.82422,48.82421 v 137.7754 h 97.64844 V 626.02148 A 52.241787,52.241787 0 0 0 400,570.57227 Z" />
  <path
     id="path3"
     style="font-variation-settings:normal;display:none;opacity:1;vector-effect:none;fill:none;fill-opacity:1;stroke:#ffffff;stroke-width:12.9472;stroke-linecap:round;stroke-linejoin:miter;stroke-miterlimit:4;stroke-dasharray:none;stroke-dashoffset:0;stroke-opacity:1;-inkscape-stroke:none;stop-color:#000000;stop-opacity:1"
     d="M 443.77524,309.13894 C 515.18993,294.86098 552.89164,230.97706 553.07114,158.14928 553.07146,73.610171 484.53889,5.0776007 399.99977,5.0779097 315.46066,5.0776007 246.92809,73.610171 246.9284,158.14928 c 0.18818,71.94286 37.78112,136.04525 108.10473,151.22419"
     sodipodi:nodetypes="ccccc"
     inkscape:label="foundry bucket" />
  <path
     id="path3-3"
     style="display:none;vector-effect:none;fill:#ffffff;stroke-width:11.4455;stop-color:#000000"
     d="m 275.31729,132.01594 c -6.84735,0.26541 -10.633,7.45016 -10.633,26.13334 0,55.07517 32.92245,102.43008 80.14414,123.55034 l -0.0765,0.007 c 0.29654,0.11001 0.58449,0.23692 0.87643,0.35625 0.59561,0.26174 1.17902,0.54439 1.77908,0.79775 14.97929,7.40487 24.64533,29.59471 52.59233,103.07336 24.24467,-69.55626 32.51728,-92.40119 51.87764,-102.79142 2.26411,-0.94078 4.50542,-1.9251 6.70545,-2.98335 0.002,-10e-4 0.004,-10e-4 0.007,-0.002 1.9284,-0.70678 3.07285,-1.31005 3.56911,-1.82498 43.44876,-22.5182 73.15673,-67.86642 73.15673,-120.18232 0,-74.732719 -60.58276,34.53483 -135.31547,34.53483 -56.04954,0 -104.14046,-61.46441 -124.68248,-60.66817 z"
     inkscape:label="foundry pour" />
  <path
     id="rect7"
     style="display:none;fill:#ffffff;fill-opacity:1;stroke:none;stroke-width:16.8;stroke-dasharray:none;stroke-dashoffset:0;stroke-opacity:1"
     d="m 253.08789,406.46875 v 139.36523 l 0.63672,55.29102 -71.42969,15.50195 V 553.1543 l -70.79101,14.68359 -1.3711,56.7168 -69.421872,14.07617 v -50.8457 C 27.192324,592.40263 13.667722,597.23326 0,602.52344 V 800 H 400 800 V 602.52344 c -13.66773,-5.29018 -27.19232,-10.12081 -40.71094,-14.73828 v 50.8457 l -71.20117,-13.60156 0.4082,-57.19141 -70.79101,-14.68359 1.02148,57.3457 -70.4414,-12.93164 -1.37305,-51.73438 V 461.44922 H 442.88281 V 422.05664 H 400 V 406.46875 Z M 400,570.57227 a 52.241787,52.241787 0 0 1 48.82422,55.44921 v 131.1504 H 351.17578 V 619.39648 A 48.824707,48.824707 0 0 1 400,570.57227 Z"
     inkscape:label="castle" />
</svg>
